<svg width="24" height="25" viewBox="0 0 24 25" fill="none" xmlns="http://www.w3.org/2000/svg">
<path fill-rule="evenodd" clip-rule="evenodd" d="M22.0425 2.90644C19.4661 0.321677 15.2809 0.322541 12.7011 2.90728C10.8428 4.7706 10.3456 7.46512 11.1677 9.79573L1.35902 19.627L0.021329 23.6406L4.02743 24.9778L5.2211 23.6406L9.08496 22.3025V19.6279L10.5582 18.2907L11.9644 19.6279L14.668 16.9517L13.3506 15.6145L15.1619 13.8059C17.4906 14.6338 20.1825 14.1356 22.0425 12.2705C24.6241 9.68665 24.6241 5.49201 22.0425 2.90644ZM18.8785 8.22606C17.6965 8.22606 16.7356 7.26305 16.7356 6.0784C16.7356 4.89378 17.6965 3.93079 18.8785 3.93079C20.0605 3.93079 21.0213 4.89378 21.0213 6.0784C21.0213 7.26305 20.0605 8.22606 18.8785 8.22606Z" fill="#DF2671"/>
</svg>
